<svg width="641" height="483" viewBox="0 0 641 483" fill="none" xmlns="http://www.w3.org/2000/svg">
<path d="M404.332 156.703C403.984 157.438 403.51 158.107 402.931 158.679C398.285 163.589 392.271 166.988 385.671 168.436C383.34 168.973 380.956 169.243 378.564 169.241C377.163 160.191 375.736 151.129 374.639 142.042C373.774 134.944 373.128 127.858 372.823 120.735C372.616 116.271 362.95 100.708 364.925 96.5366C367.106 91.9507 382.818 107.648 384.586 110.636C394.398 127.101 397.921 139.835 404.649 153.995C404.904 154.904 404.79 155.877 404.332 156.703Z" fill="#27AE60"/>
<path d="M387.256 166.777C386.785 167.39 386.254 167.954 385.671 168.46C383.34 168.997 380.956 169.268 378.565 169.265C377.163 160.215 375.737 151.153 374.64 142.067C375.054 134.928 375.806 127.817 376.895 120.735C376.431 123.698 380.076 130.163 381.063 133.066L385.342 145.713C387.572 152.312 392.339 160.337 387.256 166.777Z" fill="url(#paint0_linear)"/>
<path d="M382.002 182.255C382.977 188.207 384.221 194.232 387.158 199.501C388.67 202.208 390.925 204.867 393.984 205.343C395.686 205.504 397.401 205.249 398.982 204.599C402.258 203.471 405.348 201.86 408.148 199.818C410.824 197.765 413.346 195.519 415.693 193.098C419.186 189.799 422.417 186.235 425.36 182.438C426.713 180.608 427.944 178.681 429.419 176.937C435.513 169.68 445.265 166.423 452.176 159.947C454.041 158.215 457.819 150.287 457.539 147.75C455.004 146.287 449.799 152.178 446.995 153.032C444.192 153.885 441.571 155.276 438.756 156.068C435.384 157.009 431.826 157.055 428.431 156.203C427.285 155.91 425.92 137.822 424.774 138.237C424.198 138.479 423.682 138.845 423.263 139.31C420.898 141.75 419.606 162.569 417.644 165.277C414.95 168.936 411.22 171.717 407.527 174.376C407.198 174.607 406.783 174.851 406.417 174.668C406.297 174.579 406.196 174.465 406.12 174.335C406.045 174.205 405.997 174.061 405.979 173.912C405.016 170.339 403.931 166.789 402.748 163.289C401.92 160.85 400.749 158.166 398.299 157.435C396.117 156.788 393.85 158.02 391.9 159.203C389.389 160.74 386.854 162.252 384.355 163.801C382.965 164.655 381.283 165.484 380.625 167.058C379.82 168.948 380.503 171.558 380.735 173.498C381.1 176.437 381.527 179.352 382.002 182.255Z" fill="#F5BCBA"/>
<path d="M404.247 348.141C404.247 351.874 404.065 355.545 403.735 359.192C400.892 390.4 386.176 419.323 362.629 439.986C339.083 460.648 308.503 471.471 277.21 470.219C245.916 468.966 216.298 455.734 194.476 433.255C172.654 410.777 160.294 380.77 159.95 349.434C159.95 349.02 159.95 348.617 159.95 348.215C159.789 332.061 162.83 316.035 168.896 301.064C174.963 286.093 183.935 272.473 195.294 260.993C206.653 249.513 220.174 240.4 235.074 234.18C249.975 227.961 265.96 224.759 282.105 224.759C298.25 224.759 314.235 227.961 329.136 234.18C344.036 240.4 357.557 249.513 368.916 260.993C380.275 272.473 389.247 286.093 395.314 301.064C401.38 316.035 404.421 332.061 404.26 348.215L404.247 348.141Z" fill="#27AE60"/>
<path d="M404.247 348.142C404.247 351.874 404.065 355.545 403.735 359.192C375.627 378.328 334.257 390.403 288.12 390.403C234.488 390.403 187.364 374.096 159.95 349.374C159.95 348.959 159.95 348.556 159.95 348.154C159.789 332 162.83 315.974 168.896 301.003C174.963 286.032 183.935 272.413 195.294 260.933C206.653 249.452 220.174 240.339 235.074 234.12C249.975 227.9 265.96 224.698 282.105 224.698C298.25 224.698 314.235 227.9 329.136 234.12C344.036 240.339 357.557 249.452 368.916 260.933C380.275 272.413 389.247 286.032 395.314 301.003C401.38 315.974 404.421 332 404.26 348.154L404.247 348.142Z" fill="url(#paint1_linear)"/>
<path d="M338.108 300.355C342.984 302.111 348.286 303.368 352.284 306.697C355.831 309.637 357.989 313.893 359.732 318.15C365.544 332.435 367.641 347.961 365.827 363.278C365.339 367.351 364.608 371.547 365.668 375.474C366.729 379.402 370.349 383.085 374.42 382.597C380.064 371.376 380.186 358.277 380.198 345.714C380.198 336.543 380.198 327.176 377.126 318.528C374.615 311.405 370.178 305.112 365.595 299.123C348.884 277.169 328.662 256.691 302.918 246.824C301.85 246.278 300.624 246.126 299.456 246.397C294.154 248.336 295.019 257.777 297.079 261.57C300.005 266.81 303.262 271.857 306.831 276.681C314.66 287.521 325.554 295.766 338.108 300.355Z" fill="url(#paint2_linear)"/>
<path d="M289.9 272.79C289.972 271.149 290.184 269.517 290.534 267.912C290.721 267.115 291.124 266.386 291.698 265.803C292.272 265.22 292.995 264.806 293.788 264.607C294.458 264.589 295.125 264.527 295.787 264.424C297.14 264.009 297.713 262.436 298.103 261.082L302.43 245.958C303.259 243.031 304.1 239.957 303.466 236.993C302.467 232.359 298.213 229.224 294.068 226.955C291.058 225.297 287.669 223.821 284.317 224.443C279.124 225.406 276.114 230.773 274.176 235.688C271.92 240.955 270.533 246.553 270.068 252.264C269.727 258.862 269.166 275.022 273.249 280.792C278.905 288.89 288.998 280.108 289.9 272.79Z" fill="#282727"/>
<path d="M355.649 253.703C366.705 257.447 378.492 259.021 389.145 263.789C389.488 263.893 389.806 264.067 390.079 264.3C390.352 264.533 390.573 264.82 390.73 265.143C390.823 265.671 390.755 266.215 390.535 266.704C381.538 293.478 376.463 321.413 375.469 349.642C381.843 350.79 388.358 350.934 394.776 350.069C395.498 350.024 396.197 349.802 396.812 349.422C397.404 348.904 397.849 348.24 398.104 347.495C408.416 324.33 417.672 300.729 425.871 276.694C427.322 272.437 428.76 267.985 428.175 263.521C427.334 257.02 422.446 251.898 417.802 247.275L381.612 211.149C380.692 210.11 379.562 209.279 378.297 208.709C376.841 208.276 375.302 208.201 373.811 208.49C359.537 210.258 340.047 210.807 313.816 209.709C310.415 209.563 327.224 228.944 328.625 232.664C329.747 235.615 333.294 239.421 335.464 241.714C340.9 247.422 348.238 251.19 355.649 253.703Z" fill="#525263"/>
<path d="M355.649 253.703C366.705 257.447 378.492 259.021 389.145 263.789C389.488 263.893 389.806 264.067 390.079 264.3C390.352 264.533 390.573 264.82 390.73 265.143C390.823 265.671 390.755 266.215 390.535 266.704C381.538 293.478 376.463 321.413 375.469 349.642C381.843 350.79 388.358 350.934 394.776 350.069C395.498 350.024 396.197 349.802 396.812 349.422C397.404 348.904 397.849 348.24 398.104 347.495C408.416 324.33 417.672 300.729 425.871 276.694C427.322 272.437 428.76 267.985 428.175 263.521C427.334 257.02 422.446 251.898 417.802 247.275L381.612 211.149C380.692 210.11 379.562 209.279 378.297 208.709C376.841 208.276 375.302 208.201 373.811 208.49C359.537 210.258 340.047 210.807 313.816 209.709C310.415 209.563 327.224 228.944 328.625 232.664C329.747 235.615 333.294 239.421 335.464 241.714C340.9 247.422 348.238 251.19 355.649 253.703Z" fill="#282727"/>
<path d="M373.615 365.656C372.727 367.039 372.126 368.586 371.848 370.205C371.198 373.04 370.718 375.912 370.409 378.804C370.166 381.048 370.08 383.488 371.36 385.329C372.64 387.171 374.749 387.842 376.724 388.61C381.695 390.657 386.524 393.033 391.18 395.721C394.325 397.453 397.604 399.246 401.187 399.38C404.771 399.514 408.733 397.55 409.549 394.062C409.832 392.383 409.69 390.659 409.135 389.049C407.178 382.051 403.342 375.723 398.043 370.754C397.114 369.847 396.078 369.057 394.959 368.4C393.885 367.845 392.763 367.388 391.607 367.034C388.351 365.843 385.015 364.885 381.624 364.168C378.662 363.692 375.663 362.814 373.615 365.656Z" fill="#2E2E3F"/>
<path d="M373.615 365.656C372.727 367.039 372.126 368.586 371.848 370.205C371.198 373.04 370.718 375.912 370.409 378.804C370.166 381.048 370.08 383.488 371.36 385.329C372.64 387.171 374.749 387.842 376.724 388.61C381.695 390.657 386.524 393.033 391.18 395.721C394.325 397.453 397.604 399.246 401.187 399.38C404.771 399.514 408.733 397.55 409.549 394.062C409.832 392.383 409.69 390.659 409.135 389.049C407.178 382.051 403.342 375.723 398.043 370.754C397.114 369.847 396.078 369.057 394.959 368.4C393.885 367.845 392.763 367.388 391.607 367.034C388.351 365.843 385.015 364.885 381.624 364.168C378.662 363.692 375.663 362.814 373.615 365.656Z" fill="black"/>
<path d="M377.236 350.556C376.312 355.381 375.831 360.28 375.798 365.192C375.798 367.351 375.944 369.742 377.492 371.291C378.957 372.456 380.825 372.991 382.685 372.779C384.927 372.696 387.139 372.238 389.23 371.425C389.694 371.28 390.114 371.02 390.449 370.669C390.696 370.322 390.867 369.927 390.949 369.51C392.809 362.528 393.796 355.342 393.887 348.117C394.005 346.984 393.771 345.843 393.216 344.848C392.058 343.226 389.657 343.299 387.707 343.69C385.21 344.225 382.763 344.971 380.393 345.922C378.15 346.702 377.687 348.239 377.236 350.556Z" fill="#F5BCBA"/>
<path d="M401.274 373.486C402.155 375.653 402.872 377.883 403.419 380.158C403.797 381.926 404.016 383.817 405.15 385.232C406.588 387 409.087 387.451 411.366 387.488C413.245 387.594 415.123 387.278 416.864 386.561C417.769 386.206 418.526 385.552 419.009 384.707C419.348 383.873 419.465 382.966 419.35 382.073C419.172 375.876 417.628 369.796 414.828 364.266C413.222 361.407 411.414 358.668 409.416 356.069C408.785 354.9 407.722 354.025 406.454 353.63C405.802 353.607 405.153 353.715 404.543 353.947C403.934 354.18 403.378 354.532 402.907 354.984C400.896 356.496 396.471 359.021 396.934 361.887C397.519 365.705 399.908 369.864 401.274 373.486Z" fill="#F5BCBA"/>
<path d="M416.047 377.987C414.668 378.759 413.329 379.602 412.037 380.512C410.025 381.621 407.661 381.841 405.454 382.475C404.872 382.587 404.337 382.872 403.918 383.292C403.614 383.703 403.425 384.187 403.37 384.695C402.956 388.024 403.092 391.399 403.772 394.684C404.894 401.791 406.202 408.869 407.697 415.918C408.319 418.821 409.062 421.883 411.171 423.968C413.28 426.054 416.486 426.773 419.484 426.859C422.29 427.02 425.092 426.497 427.651 425.334C429.686 424.244 431.449 422.708 432.808 420.842C434.167 418.975 435.088 416.825 435.501 414.552C436.295 409.983 435.735 405.281 433.892 401.026C432.64 398.117 431.182 395.3 429.528 392.598C427.334 388.826 425.148 385.053 422.97 381.28C421.313 378.402 419.801 376.389 416.047 377.987Z" fill="#2E2E3F"/>
<path d="M416.047 377.987C414.668 378.759 413.329 379.602 412.037 380.512C410.025 381.621 407.661 381.841 405.454 382.475C404.872 382.587 404.337 382.872 403.918 383.292C403.614 383.703 403.425 384.187 403.37 384.695C402.956 388.024 403.092 391.399 403.772 394.684C404.894 401.791 406.202 408.869 407.697 415.918C408.319 418.821 409.062 421.883 411.171 423.968C413.28 426.054 416.486 426.773 419.484 426.859C422.29 427.02 425.092 426.497 427.651 425.334C429.686 424.244 431.449 422.708 432.808 420.842C434.167 418.975 435.088 416.825 435.501 414.552C436.295 409.983 435.735 405.281 433.892 401.026C432.64 398.117 431.182 395.3 429.528 392.598C427.334 388.826 425.148 385.053 422.97 381.28C421.313 378.402 419.801 376.389 416.047 377.987Z" fill="black"/>
<path d="M268.361 154.739C267.295 157.424 266.582 160.237 266.24 163.106C265.081 170.535 264.34 178.023 264.022 185.535C263.412 199.879 264.339 214.246 263.936 228.59C263.522 243.506 261.767 258.972 267.13 272.888C267.965 275.413 269.376 277.71 271.25 279.596C272.198 280.524 273.368 281.195 274.648 281.545C275.927 281.895 277.275 281.913 278.563 281.596C279.729 281.147 280.776 280.435 281.622 279.514C282.467 278.594 283.089 277.491 283.439 276.291C284.111 273.887 284.407 271.394 284.317 268.9L284.512 255.264C284.512 254.983 284.512 254.654 284.792 254.532C284.91 254.491 285.036 254.482 285.158 254.506C285.28 254.529 285.393 254.585 285.487 254.666C286.536 255.573 287.533 256.538 288.473 257.557C289.558 258.435 291.289 258.862 292.252 257.849C292.519 257.494 292.707 257.087 292.806 256.654C292.905 256.221 292.911 255.773 292.825 255.337C292.24 249.434 287.096 245.177 284.036 240.091C279.624 232.773 279.624 223.552 280.733 215.039C282.111 204.379 284.987 193.976 287.852 183.608L290.29 174.839C292.13 168.18 293.946 160.91 291.265 154.532C290.188 152.082 288.548 149.921 286.479 148.225C284.409 146.529 281.969 145.347 279.356 144.774C274.261 143.835 270.202 150.592 268.361 154.739Z" fill="#F5BCBA"/>
<path d="M381.527 210.197C379.954 214.43 371.081 209.49 366.01 212.027C356.332 216.905 345.288 211.893 334.501 212.027C323.018 212.234 315.095 223.553 303.698 224.992C302.87 225.163 302.016 225.163 301.187 224.992C299.615 224.528 298.689 222.955 298.018 221.479C297.035 219.203 296.331 216.815 295.922 214.369C294.508 206.27 295.922 197.586 297.433 189.353C298.701 182.377 299.964 175.396 301.224 168.412C302.687 160.28 304.162 152.101 305.649 143.872C306.516 138.443 307.737 133.078 309.305 127.809C309.598 126.894 309.903 126.004 310.232 125.126C313.067 117.973 316.488 111.066 320.459 104.477C322.896 100.244 325.334 95.939 329.101 92.7312C333.306 89.182 338.73 87.4135 344.179 86.5597C349.079 85.6356 354.131 85.9288 358.891 87.4135C361.609 88.3648 362.633 91.2433 364.791 93.0118C367.526 95.0392 369.967 97.4364 372.043 100.135C374.153 103.392 375.66 107.003 376.493 110.795C384.135 140.53 373.08 172.607 380.344 202.428C381.173 205.928 382.782 206.855 381.527 210.197Z" fill="#0D9647"/>
<path d="M371.141 105.745L372.092 111.978L368.435 109.941V126.455L364.267 108.111L368.301 102.233L371.141 105.745Z" fill="url(#paint3_linear)"/>
<path d="M340.181 105.343L342.484 106.562L346.141 109.746L336.39 135.92C336.39 135.92 350.554 114.112 351.017 102.989C351.303 96.1467 350.451 89.3045 348.494 82.7424L340.181 105.343Z" fill="url(#paint4_linear)"/>
<path d="M308.952 180.364C308.178 186.356 308.178 192.423 308.952 198.415C309.452 202.184 310.256 205.94 310 209.721C310.012 210.46 309.776 211.182 309.33 211.77C308.757 212.236 308.055 212.513 307.319 212.563C303.507 213.165 299.692 213.779 295.873 214.405C294.459 206.306 295.873 197.622 297.384 189.39C298.652 182.413 299.916 175.432 301.175 168.448C302.638 160.317 304.113 152.137 305.6 143.908C306.467 138.48 307.689 133.114 309.257 127.845C309.549 126.93 309.854 126.04 310.183 125.162C313.962 123.064 319.215 121.503 321.556 124.894C323.993 128.553 320.788 137.09 319.837 140.749C316.375 154.007 310.695 166.679 308.952 180.364Z" fill="#282727"/>
<path d="M396.629 74.6191C396.756 76.1357 396.711 77.6619 396.495 79.1684C396.372 79.9195 395.997 80.6064 395.432 81.1162C394.868 81.626 394.146 81.9284 393.387 81.9737C389.584 81.6932 386.841 85.34 383.818 87.6817C381.447 89.46 378.631 90.5499 375.681 90.8317C372.731 91.1136 369.76 90.5765 367.095 89.2795C366.565 89.0889 365.983 89.1093 365.468 89.3363C364.953 89.5633 364.545 89.9796 364.328 90.4991C363.948 91.5751 363.863 92.7335 364.084 93.8532L365.486 107.196C365.754 109.77 365.778 112.917 363.596 114.307C361.415 115.697 358.83 114.49 357.026 112.917C354.191 110.188 352.14 106.746 351.09 102.952C348.707 95.265 348.365 87.0894 350.098 79.2301C351.831 71.3707 355.58 64.0984 360.976 58.1292C363.001 55.8637 365.376 53.9368 368.009 52.4212C370.765 50.9896 373.725 49.99 376.785 49.4574C379.523 48.8107 382.354 48.6538 385.147 48.9939C388.897 49.6762 392.308 51.6059 394.825 54.4702C396.678 56.4948 398.482 62.5322 400.432 63.5201C398.982 67.2035 396.69 70.46 396.629 74.6191Z" fill="#F5BCBA"/>
<path d="M367.619 22.2466C365.832 21.8283 363.967 21.883 362.207 22.4052C358.77 23.6249 356.844 27.2229 355.601 30.6501C354.357 34.0774 353.333 37.8218 350.627 40.2489C348.299 42.3467 344.996 43.1883 342.899 45.5057C340.462 48.2011 340.23 52.1895 340.462 55.8119C340.462 58.5296 341.226 61.1924 342.668 63.4958C343.96 65.2521 345.947 66.4718 346.958 68.3744C348.104 70.5576 348.494 73.9361 350.956 74.0825C351.983 74.0306 352.953 73.5954 353.675 72.8628C356.164 70.7103 358.039 67.9373 359.111 64.8252C359.708 63.0933 360.098 61.1662 361.415 59.9465C362.731 58.7269 365.413 58.6537 366.01 60.3856C366.178 61.4875 366.008 62.6145 365.523 63.6177C365.206 64.691 365.34 66.1424 366.388 66.5083C368.363 63.4592 369.472 59.8734 371.812 57.1047C373.14 55.5476 374.807 54.3152 376.684 53.5019C378.562 52.6886 380.6 52.316 382.644 52.4125C384.687 52.5091 386.681 53.0722 388.474 54.0588C390.266 55.0455 391.809 56.4295 392.985 58.1048C394.204 59.849 395.033 61.9224 396.739 63.1665C398.347 64.1465 400.184 64.685 402.066 64.7276C406.259 65.1423 410.696 65.3009 414.475 63.4348C418.253 61.5687 421.045 57.0437 419.594 53.0798C418.448 49.9697 415.182 48.2011 412.012 47.201C408.843 46.2009 405.455 45.7008 402.663 43.9201C398.872 41.4808 396.849 37.1388 394.643 33.1993C392.436 29.2597 389.45 25.2104 385.038 24.2835C383.236 24.003 381.403 24.003 379.601 24.2835C377.844 24.6566 376.044 24.796 374.25 24.6982C372.056 24.2469 369.935 22.7589 367.619 22.2466Z" fill="#E8750B"/>
<path d="M367.619 122.467C370.403 136.576 371.223 151.003 370.057 165.338C369.094 177.266 366.802 189.109 366.888 201.074C367.067 204.439 366.965 207.813 366.583 211.161C366.046 214.478 343.813 213.21 340.571 213.173C335.11 213.1 342.034 220.491 337.926 216.93C331.478 211.307 328.601 202.538 327.809 194.024C326.675 181.889 329.162 169.741 331.868 157.849C333.745 149.616 335.744 141.359 339.108 133.614C343.277 124.04 349.871 111.856 351.992 101.623C352.297 100.122 347.117 94.6705 349.347 94.7436C350.798 94.7436 350.115 97 350.371 98.1221C350.828 99.8308 351.704 101.399 352.919 102.684C354.619 104.67 356.922 106.045 359.476 106.599C361.122 106.904 362.999 106.831 364.194 108.001C365.644 109.416 365.413 112.173 365.827 114.1C366.424 116.856 367.058 119.649 367.619 122.467Z" fill="#F2F2F2"/>
<path d="M318.265 86.1816C312.365 88.8893 307.295 93.0849 302.504 97.4757C298.539 101.051 294.794 104.863 291.29 108.892C288.194 112.551 285.366 116.344 282.099 119.796C277.589 124.54 271.958 129.126 271.068 135.651C270.796 139.054 271.391 142.47 272.799 145.579C273.959 148.754 275.672 151.698 277.858 154.276C280.631 157.346 284.29 159.477 288.328 160.374C289.594 160.704 290.915 160.762 292.204 160.545C294.02 160.027 295.69 159.092 297.08 157.813C300.258 155.407 303.267 152.786 306.088 149.97C308.965 146.982 311.402 143.579 314.206 140.518C316.644 137.883 319.24 135.505 321.678 132.919C324.591 129.821 327.187 126.443 329.784 123.064C333.457 118.482 336.825 113.662 339.864 108.636C342.403 104.2 344.419 99.4851 345.874 94.5851C346.812 91.3896 348.311 87.3403 345.069 85.0351C338.182 80.1809 325.128 82.9739 318.265 86.1816Z" fill="#1987CC"/>
<path d="M318.265 86.1816C312.365 88.8893 307.295 93.0849 302.504 97.4757C298.539 101.051 294.794 104.863 291.29 108.892C288.194 112.551 285.366 116.344 282.099 119.796C277.589 124.54 271.958 129.126 271.068 135.651C270.796 139.054 271.391 142.47 272.799 145.579C273.959 148.754 275.672 151.698 277.858 154.276C280.631 157.346 284.29 159.477 288.328 160.374C289.594 160.704 290.915 160.762 292.204 160.545C294.02 160.027 295.69 159.092 297.08 157.813C300.258 155.407 303.267 152.786 306.088 149.97C308.965 146.982 311.402 143.579 314.206 140.518C316.644 137.883 319.24 135.505 321.678 132.919C324.591 129.821 327.187 126.443 329.784 123.064C333.457 118.482 336.825 113.662 339.864 108.636C342.403 104.2 344.419 99.4851 345.874 94.5851C346.812 91.3896 348.311 87.3403 345.069 85.0351C338.182 80.1809 325.128 82.9739 318.265 86.1816Z" fill="#0D9647"/>
<path d="M420.446 141.872C419.128 142.705 418.186 144.019 417.82 145.535C417.453 147.052 417.692 148.651 418.484 149.995C420.53 153.557 423.275 156.668 426.553 159.142C428.504 161.24 432.892 161.582 436.792 159.289C440.693 156.996 459.306 146.86 468.606 140.237C469.288 139.768 469.868 139.165 470.31 138.464C470.751 137.763 471.045 136.98 471.174 136.161C471.303 135.343 471.264 134.507 471.059 133.704C470.855 132.901 470.489 132.149 469.984 131.492L462.195 121.735C461.272 120.58 459.955 119.807 458.497 119.564C457.04 119.321 455.543 119.625 454.296 120.418L420.446 141.872Z" fill="#3D3D54"/>
<path d="M296.738 246.995C298.113 252.047 300.553 256.746 303.893 260.777C307.55 265.046 312.523 268.095 317.301 270.998L337.426 283.255C340.377 284.953 343.2 286.865 345.873 288.975C352.467 294.415 356.843 302.001 361.097 309.417L390.449 360.606C391.936 363.229 394.02 366.193 397.031 366.095C398.652 365.884 400.177 365.206 401.419 364.143C405.186 361.497 409.232 358.484 410.354 354.008C411.134 350.886 410.354 347.605 409.415 344.507C404.905 329.249 397.835 314.881 390.741 300.599C379.47 277.994 368.033 255.435 356.429 232.92C353.345 226.943 349.603 217.637 344.507 213.246C344.507 213.246 297.164 210.368 295.97 215.064C293.309 225.578 293.575 236.62 296.738 246.995Z" fill="#525263"/>
<path d="M296.738 246.995C298.113 252.047 300.553 256.746 303.893 260.777C307.55 265.046 312.523 268.095 317.301 270.998L337.426 283.255C340.377 284.953 343.2 286.865 345.873 288.975C352.467 294.415 356.843 302.001 361.097 309.417L390.449 360.606C391.936 363.229 394.02 366.193 397.031 366.095C398.652 365.884 400.177 365.206 401.419 364.143C405.186 361.497 409.232 358.484 410.354 354.008C411.134 350.886 410.354 347.605 409.415 344.507C404.905 329.249 397.835 314.881 390.741 300.599C379.47 277.994 368.033 255.435 356.429 232.92C353.345 226.943 349.603 217.637 344.507 213.246C344.507 213.246 297.164 210.368 295.97 215.064C293.309 225.578 293.575 236.62 296.738 246.995Z" fill="#282727"/>
<path d="M349.981 79.4979L343.289 82.1446L339.23 104.867L352.724 104.257L349.981 79.4979Z" fill="#27AE60"/>
<path d="M364.145 103.708C364.145 104.733 364.145 105.757 364.145 106.782C364.145 107.226 364.169 107.67 364.218 108.111C364.291 108.559 364.389 109.003 364.511 109.441L366.193 116.076L366.888 105.294C368.875 106.257 370.91 107.136 372.982 107.904C372.826 106.288 372.415 104.707 371.763 103.22C370.545 100.098 369.423 96.9635 368.107 93.9022C367.799 93.0844 367.354 92.3254 366.79 91.658C366.506 91.327 366.149 91.0666 365.747 90.8972C365.345 90.7279 364.909 90.6543 364.474 90.6822C363.255 91.1945 364.023 95.7682 364.035 96.7806L364.145 103.708Z" fill="#27AE60"/>
<path d="M462.756 136.529L437.988 152.202C437.554 152.436 437.053 152.516 436.567 152.427C436.082 152.338 435.641 152.087 435.318 151.714L427.444 142.835C427.282 142.684 427.157 142.498 427.077 142.291C426.998 142.084 426.966 141.862 426.985 141.641C427.004 141.42 427.072 141.207 427.186 141.016C427.299 140.826 427.454 140.664 427.639 140.542L452.456 124.881C452.89 124.647 453.391 124.568 453.877 124.656C454.362 124.745 454.803 124.996 455.126 125.369L463 134.236C463.16 134.391 463.282 134.58 463.357 134.789C463.433 134.998 463.46 135.221 463.437 135.442C463.413 135.663 463.34 135.876 463.222 136.064C463.104 136.253 462.945 136.412 462.756 136.529Z" fill="#27AE60"/>
<defs>
<linearGradient id="paint0_linear" x1="352.553" y1="145.384" x2="402.578" y2="144.617" gradientUnits="userSpaceOnUse">
<stop offset="0.01"/>
<stop offset="0.13" stop-opacity="0.69"/>
<stop offset="1" stop-opacity="0"/>
</linearGradient>
<linearGradient id="paint1_linear" x1="93818.1" y1="14246.7" x2="46507.6" y2="87108" gradientUnits="userSpaceOnUse">
<stop offset="0.01" stop-color="#27AE60"/>
<stop offset="1" stop-color="#01682D"/>
</linearGradient>
<linearGradient id="paint2_linear" x1="25701.5" y1="28444.5" x2="14527.5" y2="35696" gradientUnits="userSpaceOnUse">
<stop offset="0.01"/>
<stop offset="0.13" stop-opacity="0.69"/>
<stop offset="1" stop-opacity="0"/>
</linearGradient>
<linearGradient id="paint3_linear" x1="1930.85" y1="2065.47" x2="2273.3" y2="2157.51" gradientUnits="userSpaceOnUse">
<stop offset="0.01"/>
<stop offset="0.13" stop-opacity="0.69"/>
<stop offset="1" stop-opacity="0"/>
</linearGradient>
<linearGradient id="paint4_linear" x1="4372.13" y1="4623.03" x2="3511.95" y2="4717.1" gradientUnits="userSpaceOnUse">
<stop offset="0.01"/>
<stop offset="0.13" stop-opacity="0.69"/>
<stop offset="1" stop-opacity="0"/>
</linearGradient>
</defs>
</svg>
