<svg width="352" height="51" viewBox="0 0 352 51" fill="none" xmlns="http://www.w3.org/2000/svg">
<path d="M67.772 41V17.528H75.8C77.024 17.528 78.152 17.624 79.184 17.816C80.24 17.984 81.152 18.296 81.92 18.752C82.712 19.208 83.324 19.808 83.756 20.552C84.212 21.296 84.44 22.232 84.44 23.36C84.44 23.888 84.368 24.416 84.224 24.944C84.08 25.472 83.876 25.964 83.612 26.42C83.348 26.876 83.024 27.284 82.64 27.644C82.28 28.004 81.86 28.268 81.38 28.436V28.58C81.98 28.724 82.532 28.952 83.036 29.264C83.54 29.552 83.984 29.924 84.368 30.38C84.752 30.836 85.052 31.376 85.268 32C85.484 32.6 85.592 33.296 85.592 34.088C85.592 35.288 85.352 36.32 84.872 37.184C84.416 38.048 83.768 38.768 82.928 39.344C82.112 39.896 81.152 40.316 80.048 40.604C78.944 40.868 77.756 41 76.484 41H67.772ZM73.064 26.924H75.548C76.844 26.924 77.78 26.672 78.356 26.168C78.956 25.664 79.256 24.992 79.256 24.152C79.256 23.24 78.956 22.592 78.356 22.208C77.756 21.824 76.832 21.632 75.584 21.632H73.064V26.924ZM73.064 36.896H76.052C78.956 36.896 80.408 35.84 80.408 33.728C80.408 32.696 80.048 31.964 79.328 31.532C78.608 31.076 77.516 30.848 76.052 30.848H73.064V36.896ZM94.5009 41.432C92.5569 41.432 91.1409 40.796 90.2529 39.524C89.3889 38.252 88.9569 36.488 88.9569 34.232V23.144H94.2489V33.548C94.2489 34.844 94.4289 35.732 94.7889 36.212C95.1489 36.692 95.7129 36.932 96.4809 36.932C97.1529 36.932 97.7169 36.776 98.1729 36.464C98.6289 36.152 99.1209 35.648 99.6489 34.952V23.144H104.941V41H100.621L100.225 38.516H100.117C99.3489 39.428 98.5209 40.148 97.6329 40.676C96.7689 41.18 95.7249 41.432 94.5009 41.432ZM109.598 41V15.764H114.746V30.236H114.89L120.542 23.144H126.302L120.038 30.488L126.77 41H121.046L117.014 34.052L114.746 36.608V41H109.598ZM133.469 41.432C132.653 41.432 131.909 41.288 131.237 41C130.589 40.736 130.037 40.364 129.581 39.884C129.125 39.38 128.765 38.804 128.501 38.156C128.261 37.508 128.141 36.8 128.141 36.032C128.141 34.16 128.933 32.696 130.517 31.64C132.101 30.584 134.657 29.876 138.185 29.516C138.137 28.724 137.897 28.1 137.465 27.644C137.057 27.164 136.361 26.924 135.377 26.924C134.609 26.924 133.841 27.068 133.073 27.356C132.329 27.644 131.525 28.04 130.661 28.544L128.753 25.052C129.905 24.356 131.105 23.792 132.353 23.36C133.625 22.928 134.969 22.712 136.385 22.712C138.689 22.712 140.441 23.372 141.641 24.692C142.865 25.988 143.477 28.016 143.477 30.776V41H139.157L138.797 39.164H138.653C137.885 39.836 137.081 40.388 136.241 40.82C135.401 41.228 134.477 41.432 133.469 41.432ZM135.269 37.328C135.869 37.328 136.385 37.196 136.817 36.932C137.249 36.668 137.705 36.296 138.185 35.816V32.684C136.313 32.948 135.017 33.332 134.297 33.836C133.577 34.34 133.217 34.94 133.217 35.636C133.217 36.212 133.397 36.644 133.757 36.932C134.141 37.196 134.645 37.328 135.269 37.328Z" fill="#293149" fill-opacity="0.9"/>
<path d="M148.385 41V17.528H153.677V36.536H162.965V41H148.385ZM173.762 41.432C172.634 41.432 171.542 41.228 170.486 40.82C169.43 40.388 168.494 39.776 167.678 38.984C166.886 38.192 166.25 37.22 165.77 36.068C165.29 34.892 165.05 33.56 165.05 32.072C165.05 30.584 165.29 29.264 165.77 28.112C166.25 26.936 166.886 25.952 167.678 25.16C168.494 24.368 169.43 23.768 170.486 23.36C171.542 22.928 172.634 22.712 173.762 22.712C174.89 22.712 175.97 22.928 177.002 23.36C178.058 23.768 178.982 24.368 179.774 25.16C180.59 25.952 181.238 26.936 181.718 28.112C182.198 29.264 182.438 30.584 182.438 32.072C182.438 33.56 182.198 34.892 181.718 36.068C181.238 37.22 180.59 38.192 179.774 38.984C178.982 39.776 178.058 40.388 177.002 40.82C175.97 41.228 174.89 41.432 173.762 41.432ZM173.762 37.148C174.842 37.148 175.658 36.692 176.21 35.78C176.762 34.868 177.038 33.632 177.038 32.072C177.038 30.512 176.762 29.276 176.21 28.364C175.658 27.452 174.842 26.996 173.762 26.996C172.658 26.996 171.83 27.452 171.278 28.364C170.75 29.276 170.486 30.512 170.486 32.072C170.486 33.632 170.75 34.868 171.278 35.78C171.83 36.692 172.658 37.148 173.762 37.148ZM188.769 41L184.305 23.144H189.561L191.289 31.424C191.433 32.312 191.565 33.188 191.685 34.052C191.805 34.916 191.937 35.804 192.081 36.716H192.225C192.393 35.804 192.549 34.904 192.693 34.016C192.861 33.128 193.053 32.264 193.269 31.424L195.249 23.144H199.821L201.837 31.424C202.053 32.312 202.245 33.188 202.413 34.052C202.581 34.916 202.761 35.804 202.953 36.716H203.097C203.265 35.804 203.397 34.916 203.493 34.052C203.613 33.188 203.757 32.312 203.925 31.424L205.617 23.144H210.513L206.229 41H200.037L198.417 33.872C198.225 33.032 198.057 32.192 197.913 31.352C197.769 30.512 197.613 29.612 197.445 28.652H197.301C197.133 29.612 196.977 30.512 196.833 31.352C196.713 32.192 196.569 33.032 196.401 33.872L194.817 41H188.769ZM221.117 41.432C219.989 41.432 218.897 41.228 217.841 40.82C216.785 40.388 215.849 39.776 215.033 38.984C214.241 38.192 213.605 37.22 213.125 36.068C212.645 34.892 212.405 33.56 212.405 32.072C212.405 30.584 212.645 29.264 213.125 28.112C213.605 26.936 214.241 25.952 215.033 25.16C215.849 24.368 216.785 23.768 217.841 23.36C218.897 22.928 219.989 22.712 221.117 22.712C222.245 22.712 223.325 22.928 224.357 23.36C225.413 23.768 226.337 24.368 227.129 25.16C227.945 25.952 228.593 26.936 229.073 28.112C229.553 29.264 229.793 30.584 229.793 32.072C229.793 33.56 229.553 34.892 229.073 36.068C228.593 37.22 227.945 38.192 227.129 38.984C226.337 39.776 225.413 40.388 224.357 40.82C223.325 41.228 222.245 41.432 221.117 41.432ZM221.117 37.148C222.197 37.148 223.013 36.692 223.565 35.78C224.117 34.868 224.393 33.632 224.393 32.072C224.393 30.512 224.117 29.276 223.565 28.364C223.013 27.452 222.197 26.996 221.117 26.996C220.013 26.996 219.185 27.452 218.633 28.364C218.105 29.276 217.841 30.512 217.841 32.072C217.841 33.632 218.105 34.868 218.633 35.78C219.185 36.692 220.013 37.148 221.117 37.148ZM233.418 41V23.144H237.738L238.098 25.412H238.242C239.01 24.692 239.85 24.068 240.762 23.54C241.674 22.988 242.742 22.712 243.966 22.712C245.91 22.712 247.314 23.348 248.178 24.62C249.066 25.892 249.51 27.656 249.51 29.912V41H244.218V30.596C244.218 29.3 244.038 28.412 243.678 27.932C243.342 27.452 242.79 27.212 242.022 27.212C241.35 27.212 240.774 27.368 240.294 27.68C239.814 27.968 239.286 28.388 238.71 28.94V41H233.418ZM260.392 48.596C259.336 48.596 258.352 48.5 257.44 48.308C256.552 48.14 255.76 47.876 255.064 47.516C254.392 47.156 253.864 46.688 253.48 46.112C253.096 45.536 252.904 44.852 252.904 44.06C252.904 42.62 253.756 41.42 255.46 40.46V40.316C254.98 40.004 254.584 39.608 254.272 39.128C253.96 38.648 253.804 38.036 253.804 37.292C253.804 36.644 253.996 36.032 254.38 35.456C254.764 34.856 255.244 34.352 255.82 33.944V33.8C255.196 33.368 254.632 32.756 254.128 31.964C253.648 31.148 253.408 30.212 253.408 29.156C253.408 28.076 253.612 27.14 254.02 26.348C254.428 25.532 254.968 24.86 255.64 24.332C256.336 23.78 257.128 23.372 258.016 23.108C258.904 22.844 259.828 22.712 260.788 22.712C261.844 22.712 262.768 22.856 263.56 23.144H270.076V26.996H267.232C267.4 27.26 267.532 27.596 267.628 28.004C267.748 28.412 267.808 28.856 267.808 29.336C267.808 30.368 267.628 31.268 267.268 32.036C266.908 32.78 266.404 33.404 265.756 33.908C265.132 34.388 264.388 34.748 263.524 34.988C262.684 35.228 261.772 35.348 260.788 35.348C260.092 35.348 259.372 35.228 258.628 34.988C258.388 35.18 258.22 35.372 258.124 35.564C258.028 35.756 257.98 36.008 257.98 36.32C257.98 36.776 258.172 37.112 258.556 37.328C258.964 37.544 259.672 37.652 260.68 37.652H263.56C265.768 37.652 267.448 38.012 268.6 38.732C269.776 39.428 270.364 40.58 270.364 42.188C270.364 43.124 270.124 43.976 269.644 44.744C269.188 45.536 268.528 46.208 267.664 46.76C266.8 47.336 265.756 47.78 264.532 48.092C263.308 48.428 261.928 48.596 260.392 48.596ZM260.788 32.144C261.484 32.144 262.06 31.904 262.516 31.424C262.996 30.92 263.236 30.164 263.236 29.156C263.236 28.22 262.996 27.512 262.516 27.032C262.06 26.528 261.484 26.276 260.788 26.276C260.092 26.276 259.504 26.516 259.024 26.996C258.568 27.476 258.34 28.196 258.34 29.156C258.34 30.164 258.568 30.92 259.024 31.424C259.504 31.904 260.092 32.144 260.788 32.144ZM261.22 45.284C262.42 45.284 263.404 45.068 264.172 44.636C264.94 44.228 265.324 43.712 265.324 43.088C265.324 42.536 265.084 42.164 264.604 41.972C264.148 41.78 263.476 41.684 262.588 41.684H260.752C260.128 41.684 259.624 41.66 259.24 41.612C258.856 41.588 258.52 41.54 258.232 41.468C257.584 42.044 257.26 42.632 257.26 43.232C257.26 43.904 257.62 44.408 258.34 44.744C259.06 45.104 260.02 45.284 261.22 45.284ZM277.082 41.432C276.266 41.432 275.522 41.288 274.85 41C274.202 40.736 273.65 40.364 273.194 39.884C272.738 39.38 272.378 38.804 272.114 38.156C271.874 37.508 271.754 36.8 271.754 36.032C271.754 34.16 272.546 32.696 274.13 31.64C275.714 30.584 278.27 29.876 281.798 29.516C281.75 28.724 281.51 28.1 281.078 27.644C280.67 27.164 279.974 26.924 278.99 26.924C278.222 26.924 277.454 27.068 276.686 27.356C275.942 27.644 275.138 28.04 274.274 28.544L272.366 25.052C273.518 24.356 274.718 23.792 275.966 23.36C277.238 22.928 278.582 22.712 279.998 22.712C282.302 22.712 284.054 23.372 285.254 24.692C286.478 25.988 287.09 28.016 287.09 30.776V41H282.77L282.41 39.164H282.266C281.498 39.836 280.694 40.388 279.854 40.82C279.014 41.228 278.09 41.432 277.082 41.432ZM278.882 37.328C279.482 37.328 279.998 37.196 280.43 36.932C280.862 36.668 281.318 36.296 281.798 35.816V32.684C279.926 32.948 278.63 33.332 277.91 33.836C277.19 34.34 276.83 34.94 276.83 35.636C276.83 36.212 277.01 36.644 277.37 36.932C277.754 37.196 278.258 37.328 278.882 37.328ZM291.567 41V23.144H295.887L296.247 25.412H296.391C297.159 24.692 297.999 24.068 298.911 23.54C299.823 22.988 300.891 22.712 302.115 22.712C304.059 22.712 305.463 23.348 306.327 24.62C307.215 25.892 307.659 27.656 307.659 29.912V41H302.367V30.596C302.367 29.3 302.187 28.412 301.827 27.932C301.491 27.452 300.939 27.212 300.171 27.212C299.499 27.212 298.923 27.368 298.443 27.68C297.963 27.968 297.435 28.388 296.859 28.94V41H291.567Z" fill="#3E465B"/>
<path d="M315.228 41.432C314.316 41.432 313.548 41.12 312.924 40.496C312.324 39.848 312.024 39.056 312.024 38.12C312.024 37.16 312.324 36.368 312.924 35.744C313.548 35.096 314.316 34.772 315.228 34.772C316.14 34.772 316.896 35.096 317.496 35.744C318.12 36.368 318.432 37.16 318.432 38.12C318.432 39.056 318.12 39.848 317.496 40.496C316.896 41.12 316.14 41.432 315.228 41.432ZM322.961 41V23.144H328.253V41H322.961ZM325.589 20.516C324.701 20.516 323.969 20.264 323.393 19.76C322.817 19.232 322.529 18.56 322.529 17.744C322.529 16.928 322.817 16.268 323.393 15.764C323.969 15.26 324.701 15.008 325.589 15.008C326.501 15.008 327.233 15.26 327.785 15.764C328.361 16.268 328.649 16.928 328.649 17.744C328.649 18.56 328.361 19.232 327.785 19.76C327.233 20.264 326.501 20.516 325.589 20.516ZM339.282 41.432C338.178 41.432 337.17 41.216 336.258 40.784C335.37 40.352 334.602 39.74 333.954 38.948C333.33 38.132 332.838 37.148 332.478 35.996C332.142 34.844 331.974 33.536 331.974 32.072C331.974 30.608 332.178 29.3 332.586 28.148C333.018 26.996 333.57 26.024 334.242 25.232C334.938 24.416 335.73 23.792 336.618 23.36C337.53 22.928 338.454 22.712 339.39 22.712C340.398 22.712 341.226 22.88 341.874 23.216C342.522 23.552 343.158 24.008 343.782 24.584L343.566 21.848V15.764H348.858V41H344.538L344.178 39.236H344.034C343.41 39.86 342.678 40.388 341.838 40.82C340.998 41.228 340.146 41.432 339.282 41.432ZM340.65 37.112C341.226 37.112 341.742 36.992 342.198 36.752C342.678 36.512 343.134 36.092 343.566 35.492V28.184C343.086 27.752 342.594 27.452 342.09 27.284C341.586 27.116 341.094 27.032 340.614 27.032C339.774 27.032 339.03 27.44 338.382 28.256C337.734 29.048 337.41 30.296 337.41 32C337.41 33.776 337.686 35.072 338.238 35.888C338.814 36.704 339.618 37.112 340.65 37.112Z" fill="#27AE60"/>
<g clip-path="url(#clip0)">
<path fill-rule="evenodd" clip-rule="evenodd" d="M23.5186 30.5448V25.1435C23.5186 22.2719 21.6582 21.6821 19.285 20.2577H4.23359C1.86035 21.6822 0 22.2719 0 25.1436V30.5449C0 31.2087 0.304883 31.1261 0.812012 31.1261H2.37891H9.88037H11.7578H13.6324H21.1395H22.7065C23.2137 31.126 23.5186 31.2086 23.5186 30.5448Z" fill="#F9F7F7"/>
<path d="M21.1852 44.4136H12.5124V39.2176L12.9906 39.6958C13.138 39.8432 13.3311 39.9168 13.5242 39.9168C13.7173 39.9168 13.9104 39.8432 14.0576 39.696C14.3524 39.4016 14.3525 38.9239 14.0578 38.6293L12.2915 36.863C12.2912 36.8627 12.2909 36.8625 12.2907 36.8622C12.2798 36.8513 12.27 36.8426 12.2608 36.835C12.1273 36.7153 11.9514 36.6419 11.7579 36.6419C11.5634 36.6419 11.3866 36.7161 11.2529 36.837C11.2442 36.8442 11.2349 36.8525 11.2244 36.8628C11.2242 36.863 11.224 36.8631 11.2239 36.8633L9.46028 38.6296C9.16594 38.9244 9.16633 39.4021 9.46135 39.6963C9.60872 39.8432 9.80149 39.9167 9.99436 39.9167C10.1877 39.9167 10.3811 39.8429 10.5284 39.6953L11.0034 39.2196V45.1678C11.0034 45.5844 11.3412 45.922 11.7579 45.922H21.1853C21.602 45.922 21.9398 45.5843 21.9398 45.1678C21.9397 44.7513 21.6019 44.4136 21.1852 44.4136Z" fill="#838383"/>
<path d="M40.2513 12.7191C39.9567 12.4247 39.4789 12.4248 39.1842 12.7193L38.706 13.1975V7.24733C38.706 6.83073 38.3682 6.49313 37.9515 6.49313H28.527C28.1103 6.49313 27.7725 6.83083 27.7725 7.24733C27.7725 7.66393 28.1103 8.00163 28.527 8.00163H37.197V13.1976L36.7187 12.7192C36.4241 12.4247 35.9463 12.4246 35.6516 12.719C35.3569 13.0135 35.3569 13.4911 35.6514 13.7857L37.4178 15.5519C37.5652 15.6992 37.7582 15.7729 37.9514 15.7729C38.1445 15.7729 38.3377 15.6993 38.485 15.5519L40.2514 13.7857C40.5461 13.4912 40.546 13.0136 40.2513 12.7191Z" fill="#838383"/>
<path fill-rule="evenodd" clip-rule="evenodd" d="M15.0883 28.5649L13.1595 24.3857L11.7578 23.5938L10.3504 24.3857L8.42454 28.5649C8.40745 28.6048 8.39319 28.6077 8.41887 28.6419L9.8804 31.1261H11.7578H13.6324L15.0911 28.6419C15.1197 28.6077 15.1054 28.6048 15.0883 28.5649Z" fill="#7BACDF"/>
<path fill-rule="evenodd" clip-rule="evenodd" d="M13.1596 24.3858L13.7578 22.0355L14.0655 20.8732L11.7578 19.9159L10.6724 20.4231L9.47296 20.9814L9.75216 22.0411L10.3504 24.3858H11.755H13.1596Z" fill="#3987D0"/>
<path fill-rule="evenodd" clip-rule="evenodd" d="M9.75219 22.0411L11.7579 19.9159L10.379 18.5827L7.67524 18.1924L4.23364 20.2578L7.82339 22.5796C8.48716 22.9699 8.64106 23.3316 9.1396 22.6907L9.75219 22.0411Z" fill="#CECECE"/>
<path fill-rule="evenodd" clip-rule="evenodd" d="M15.6951 22.5796L19.2849 20.2578L15.8433 18.1924L13.7578 18.3291L11.7578 19.9159L13.7578 22.0355L14.3789 22.6907C14.8775 23.3317 15.0285 22.9698 15.6951 22.5796Z" fill="#CECECE"/>
<path fill-rule="evenodd" clip-rule="evenodd" d="M15.8432 18.1924C17.2962 16.9845 18.3845 15.315 18.7435 13.7426C18.8261 13.3807 18.8717 13.0218 18.8717 12.6771V8.47792V7.95946H17.564C14.7948 7.95946 14.2164 4.54657 10.8318 4.54657H9.18508C6.5925 4.54657 8.56682 8.47792 5.58391 8.47792H4.64661V12.677C4.64661 13.0218 4.69221 13.3807 4.77483 13.7425C5.13098 15.315 6.2221 16.9845 7.67512 18.1923C8.37317 18.7734 9.15374 19.2492 9.97708 19.554C10.6238 19.7962 11.1907 19.9158 11.7577 19.9158C12.3276 19.9158 12.8916 19.7962 13.5412 19.554C14.3646 19.2493 15.1452 18.7735 15.8432 18.1924Z" fill="#FFE5C1"/>
<path fill-rule="evenodd" clip-rule="evenodd" d="M18.8718 6.59199C18.8718 3.26738 15.4587 1.00547 12.3019 0.683594H10.8034C9.58974 0.81748 8.51562 1.29893 7.83193 2.18496C4.39599 2.48975 4.64677 7.06211 4.64677 7.66318V8.82832V10.4892H5.58407C8.56698 10.4892 6.59267 6.55781 9.18525 6.55781H10.8319C14.2165 6.55781 14.7921 9.96787 17.5642 9.96787H18.8719V8.93379V6.59199H18.8718Z" fill="#838383"/>
<path fill-rule="evenodd" clip-rule="evenodd" d="M18.8718 7.95947V6.59199C18.8718 3.26738 15.4587 1.00547 12.3019 0.683594H10.8119C13.8888 1.10234 17.1053 3.33018 17.1053 6.55781V7.92529V8.44658V8.90234V9.93643C17.2507 9.95635 17.4045 9.96777 17.564 9.96777H18.8718V8.93379V8.47793V7.95947Z" fill="#595959"/>
<path fill-rule="evenodd" clip-rule="evenodd" d="M18.8718 12.6771V10.4892V9.96787H17.5641C17.4045 9.96787 17.2507 9.95645 17.1054 9.93652V12.64C17.1054 12.9848 17.0626 13.3437 16.98 13.7055C16.621 15.278 15.5299 16.9445 14.0797 18.1553C14.0114 18.2122 13.9401 18.2664 13.8717 18.3233C13.6068 18.5284 13.3332 18.7222 13.0484 18.8931C12.6409 19.1438 12.2136 19.3546 11.7748 19.517C11.6695 19.5568 11.564 19.5939 11.4586 19.6281C11.2279 19.7021 11.0056 19.762 10.7863 19.8019C11.1196 19.8788 11.4387 19.9158 11.7577 19.9158C12.3276 19.9158 12.8916 19.7962 13.5412 19.554C14.3646 19.2492 15.1452 18.7734 15.8432 18.1923C17.2962 16.9844 18.3845 15.3149 18.7435 13.7425C18.8262 13.3808 18.8718 13.0218 18.8718 12.6771Z" fill="#FED1A3"/>
<path fill-rule="evenodd" clip-rule="evenodd" d="M17.1054 9.93651C14.7179 9.58895 14.0228 6.5578 10.8319 6.5578H9.18518C8.22795 6.5578 7.89172 7.09335 7.70081 7.77137H9.58694C12.7779 7.77137 13.473 10.7997 15.8605 11.1501C17.1795 11.133 17.1055 10.9792 17.1055 12.64C17.1055 12.9848 17.0627 13.3436 16.9801 13.7055C16.6211 15.278 15.53 16.9445 14.0798 18.1553C14.0114 18.2122 13.9402 18.2664 13.8718 18.3233C13.6069 18.5284 13.3333 18.7222 13.0485 18.8931C12.641 19.1437 12.2137 19.3546 11.7749 19.517C11.6696 19.5568 11.5641 19.5939 11.4587 19.6281C11.228 19.7021 11.0057 19.762 10.7864 19.8018C11.1197 19.8788 11.4388 19.9158 11.7578 19.9158C12.3277 19.9158 12.8917 19.7962 13.5413 19.554C14.3647 19.2492 15.1453 18.7734 15.8433 18.1923C17.2963 16.9844 18.3846 15.3149 18.7436 13.7425C18.8262 13.3807 18.8718 13.0217 18.8718 12.677V10.4891V9.96786H17.5641C17.4046 9.96786 17.2507 9.95643 17.1054 9.93651Z" fill="#FED1A3"/>
<path fill-rule="evenodd" clip-rule="evenodd" d="M10.131 21.6394L11.7578 19.9159C11.4387 19.9159 11.1196 19.8789 10.7863 19.802C10.527 19.7421 10.2621 19.6595 9.97722 19.5541C9.15388 19.2493 8.37322 18.7735 7.67527 18.1924L6.02283 19.1838C6.21658 19.3689 6.41882 19.5513 6.624 19.7222C7.50154 20.4515 8.48435 21.0497 9.52146 21.4371C9.54714 21.4457 9.57556 21.457 9.60124 21.4656C9.78347 21.5312 9.96013 21.591 10.131 21.6394Z" fill="#B5ADB6"/>
<path fill-rule="evenodd" clip-rule="evenodd" d="M13.9972 21.4372C15.0342 21.0498 16.0143 20.4515 16.8918 19.7222C17.0998 19.5513 17.3021 19.369 17.4958 19.1838L15.8434 18.1924C15.1453 18.7736 14.3648 19.2494 13.5414 19.5542C12.8918 19.7964 12.3278 19.916 11.7579 19.916L13.3875 21.6395C13.5556 21.5911 13.7294 21.5341 13.9089 21.4686C13.9373 21.4571 13.9687 21.4457 13.9972 21.4372Z" fill="#B5ADB6"/>
<path fill-rule="evenodd" clip-rule="evenodd" d="M13.3874 21.6395L11.7578 19.9159L10.8945 20.8304L11.8175 22.0525L12.1024 22.4115C12.1907 22.5198 12.1679 22.5369 12.1337 22.6736L11.8574 23.7505L11.7577 24.3858H13.1594L13.7578 22.0355L13.3874 21.6395Z" fill="#0067B4"/>
<path fill-rule="evenodd" clip-rule="evenodd" d="M15.0883 28.5649L13.1595 24.3857H11.7578L13.2165 28.5649C13.2336 28.6048 13.245 28.6077 13.2193 28.6419L11.7578 31.126H13.6324L15.0911 28.6418C15.1196 28.6077 15.1054 28.6048 15.0883 28.5649Z" fill="#3987D0"/>
<path fill-rule="evenodd" clip-rule="evenodd" d="M23.5185 25.1435C23.5185 22.272 21.6582 21.6822 19.2849 20.2578L17.0741 21.6879C19.1254 22.8616 20.6496 23.5909 20.6496 26.1891V31.1261H21.1396H22.7066C23.2137 31.1261 23.5186 31.2087 23.5186 30.5449V25.1435H23.5185Z" fill="#E2E2E2"/>
<path fill-rule="evenodd" clip-rule="evenodd" d="M49.9999 48.7317V43.3304C49.9999 40.4616 48.1396 39.8691 45.7664 38.4446H30.7122C28.3389 39.8691 26.4786 40.4616 26.4786 43.3304V48.7317C26.4786 49.3983 26.7835 49.3129 27.2934 49.3129H28.8604H36.3589H38.2393H40.1111H47.6182H49.1852C49.6951 49.3129 49.9999 49.3983 49.9999 48.7317Z" fill="#7BACDF"/>
<path fill-rule="evenodd" clip-rule="evenodd" d="M41.567 46.7518L39.6411 42.5726L38.2395 41.7806L36.832 42.5726L34.9032 46.7518C34.8861 46.7916 34.8719 46.7945 34.8976 46.8315L36.3591 49.3129H38.2395H40.1112L41.5728 46.8315C41.5982 46.7945 41.5841 46.7916 41.567 46.7518Z" fill="#FE9737"/>
<path fill-rule="evenodd" clip-rule="evenodd" d="M39.641 42.5725L40.2394 40.2223L40.547 39.0599L38.2394 38.1057L37.1538 38.6099L35.9544 39.1683L36.2336 40.2308L36.8319 42.5725H38.2364H39.641Z" fill="#FE7600"/>
<path fill-rule="evenodd" clip-rule="evenodd" d="M36.2335 40.2309L38.2392 38.1057L36.8603 36.7725L34.1538 36.3793L30.7122 38.4447L34.3019 40.7693C34.9686 41.1567 35.1196 41.5186 35.6209 40.8776L36.2335 40.2309Z" fill="#0078C8"/>
<path fill-rule="evenodd" clip-rule="evenodd" d="M42.1767 40.7692L45.7665 38.4446L42.3249 36.3792L40.2394 36.5187L38.2394 38.1055L40.2394 40.2222L40.8577 40.8775C41.3591 41.5184 41.51 41.1567 42.1767 40.7692Z" fill="#0078C8"/>
<path fill-rule="evenodd" clip-rule="evenodd" d="M42.3248 36.3792C43.7749 35.1713 44.8661 33.5048 45.2251 31.9322C45.3077 31.5676 45.3505 31.2115 45.3505 30.864V26.6677V26.1464H44.0427C41.2735 26.1464 40.6952 22.7363 37.3134 22.7363H35.6638C33.0741 22.7363 35.0456 26.6677 32.0656 26.6677H31.1283V30.864C31.1283 31.2115 31.1711 31.5676 31.2537 31.9322C31.6127 33.5048 32.7038 35.1713 34.154 36.3792C34.852 36.9604 35.6354 37.4361 36.4589 37.7437C37.1055 37.9859 37.6725 38.1056 38.2395 38.1056C38.8065 38.1056 39.3734 37.9859 40.0202 37.7437C40.8432 37.4361 41.6267 36.9604 42.3248 36.3792Z" fill="#FFE5C1"/>
<path fill-rule="evenodd" clip-rule="evenodd" d="M45.3504 24.779C45.3504 21.4543 41.9401 19.1924 38.7834 18.8705H37.2849C36.0712 19.0044 34.9971 19.4859 34.3105 20.3747C30.8746 20.6767 31.1282 25.2491 31.1282 25.853V27.0181V28.6761H32.0655C35.0456 28.6761 33.074 24.7448 35.6638 24.7448H37.3134C40.698 24.7448 41.2735 28.1577 44.0427 28.1577H45.3504V27.1236V24.779Z" fill="#838383"/>
<path fill-rule="evenodd" clip-rule="evenodd" d="M45.3503 26.1463V24.7789C45.3503 21.4543 41.9401 19.1924 38.7833 18.8705H37.2905C40.3674 19.2921 43.5868 21.5171 43.5868 24.7477V26.1151V26.6335V27.0893V28.1234C43.7321 28.1461 43.883 28.1576 44.0426 28.1576H45.3503V27.1235V26.6676V26.1463Z" fill="#595959"/>
<path fill-rule="evenodd" clip-rule="evenodd" d="M45.3504 30.864V28.6761V28.1576H44.0427C43.8832 28.1576 43.7322 28.1462 43.5869 28.1234V30.827C43.5869 31.1745 43.5441 31.5306 43.4615 31.8952C43.1025 33.4678 42.0114 35.1343 40.5583 36.3422C40.49 36.3991 40.4216 36.4562 40.3503 36.5103C40.0882 36.7183 39.8118 36.9091 39.5298 37.0829C39.1196 37.3308 38.695 37.5416 38.2563 37.7068C38.148 37.7467 38.0426 37.7838 37.9401 37.8151C37.7093 37.8921 37.4842 37.949 37.2677 37.9918C37.601 38.0658 37.9201 38.1058 38.2392 38.1058C38.8062 38.1058 39.3731 37.9861 40.0199 37.7439C40.8432 37.4362 41.6267 36.9606 42.3247 36.3794C43.7748 35.1715 44.8661 33.505 45.225 31.9324C45.3078 31.5676 45.3504 31.2115 45.3504 30.864Z" fill="#FED1A3"/>
<path fill-rule="evenodd" clip-rule="evenodd" d="M43.5869 28.1234C41.1994 27.7758 40.5015 24.7447 37.3134 24.7447H35.6638C34.7065 24.7447 34.3731 25.283 34.1823 25.9582H36.0683C39.2563 25.9582 39.9516 28.9894 42.3419 29.3369C43.6097 29.3369 43.5869 29.2087 43.5869 30.1973V30.8269C43.5869 31.1744 43.5441 31.5305 43.4615 31.8951C43.1025 33.4677 42.0114 35.1342 40.5584 36.3421C40.49 36.399 40.4217 36.4561 40.3504 36.5102C40.0883 36.7182 39.8119 36.909 39.5299 37.0828C39.1196 37.3307 38.6951 37.5415 38.2563 37.7068C38.148 37.7466 38.0427 37.7837 37.9401 37.8151C37.7094 37.892 37.4843 37.9489 37.2678 37.9917C37.6011 38.0657 37.9202 38.1057 38.2392 38.1057C38.8062 38.1057 39.3731 37.9861 40.0199 37.7439C40.8432 37.4362 41.6267 36.9605 42.3248 36.3793C43.7749 35.1714 44.8661 33.5049 45.2251 31.9324C45.3077 31.5677 45.3505 31.2116 45.3505 30.8641V28.6762V28.1577H44.0428C43.8832 28.1575 43.7322 28.1462 43.5869 28.1234Z" fill="#FED1A3"/>
<path fill-rule="evenodd" clip-rule="evenodd" d="M36.6125 39.8291L38.2393 38.1055C37.9202 38.1055 37.6011 38.0657 37.2678 37.9916C37.0085 37.9317 36.7407 37.8491 36.4587 37.7437C35.6353 37.436 34.8518 36.9603 34.1538 36.3792L32.5013 37.3706C32.6979 37.5586 32.8973 37.738 33.1053 37.9119C33.9829 38.6412 34.9657 39.2394 36 39.624C36.0285 39.6354 36.0541 39.6439 36.0826 39.6525C36.2621 39.7209 36.4388 39.7778 36.6125 39.8291Z" fill="#0067B4"/>
<path fill-rule="evenodd" clip-rule="evenodd" d="M40.4786 39.624C41.5128 39.2394 42.4957 38.6412 43.3733 37.9119C43.5813 37.7381 43.7807 37.5587 43.9773 37.3706L42.3248 36.3792C41.6268 36.9603 40.8434 37.4361 40.0199 37.7437C39.3732 37.9859 38.8063 38.1055 38.2393 38.1055L39.866 39.8291C40.0369 39.7778 40.2107 39.7209 40.3902 39.6582C40.4189 39.6468 40.4473 39.6354 40.4786 39.624Z" fill="#0067B4"/>
<path fill-rule="evenodd" clip-rule="evenodd" d="M39.8661 39.8291L38.2394 38.1056L37.3761 39.02L38.2991 40.2394L38.584 40.6012C38.6695 40.7095 38.6495 40.7266 38.6154 40.8605L38.339 41.9402L38.2393 42.5726H39.6409L40.2392 40.2223L39.8661 39.8291Z" fill="#E6581F"/>
<path fill-rule="evenodd" clip-rule="evenodd" d="M41.567 46.7517L39.6411 42.5725H38.2394L39.6953 46.7517C39.7124 46.7916 39.7267 46.7945 39.701 46.8315L38.2394 49.3129H40.1112L41.5727 46.8315C41.5982 46.7945 41.5841 46.7916 41.567 46.7517Z" fill="#F36B37"/>
<path fill-rule="evenodd" clip-rule="evenodd" d="M50 43.3304C50 40.4616 48.1396 39.8691 45.7664 38.4446L43.5555 39.8776C45.604 41.0484 47.131 41.7777 47.131 44.3787V49.3129H47.6182H49.1852C49.6952 49.3129 50.0001 49.3983 50.0001 48.7317V43.3304H50Z" fill="#3987D0"/>
</g>
<defs>
<clipPath id="clip0">
<rect width="50" height="50" fill="white"/>
</clipPath>
</defs>
</svg>
